<?xml version="1.0" encoding="UTF-8"?><svg id="Layer_2" xmlns="http://www.w3.org/2000/svg" viewBox="0 0 502.92 695.29"><defs><style>.cls-1{font-size:15.75px;}.cls-1,.cls-2{fill:#231f20;font-family:SFCartoonistHandSC-BoldItalic, 'SF Cartoonist Hand SC';}.cls-2{font-size:17.31px;}.cls-3,.cls-4{font-size:32.6px;}.cls-3,.cls-4,.cls-5,.cls-6{font-family:Chewy, Chewy;}.cls-7{fill:#f2663a;}.cls-8{fill:#f4f0e6;}.cls-9{fill:#eddac5;}.cls-10{fill:#efeded;}.cls-11{fill:#8ad1eb;}.cls-12{fill:#a0d8d1;}.cls-13{fill:#93918f;}.cls-14{fill:#cdab8f;}.cls-15{fill:#d84d27;}.cls-16{fill:#e0dede;}.cls-17{fill:#049bc6;}.cls-18{fill:#089bc6;}.cls-19{fill:#6dceed;}.cls-20{fill:#2aace2;}.cls-21{fill:#4ac0b7;}.cls-4{stroke:#fff;stroke-width:.5px;}.cls-4,.cls-22,.cls-23,.cls-24,.cls-25,.cls-6,.cls-26{stroke-miterlimit:10;}.cls-4,.cls-24,.cls-25,.cls-6,.cls-26,.cls-27{fill:none;}.cls-22{fill:#fff;}.cls-22,.cls-23{stroke-width:.25px;}.cls-22,.cls-23,.cls-24,.cls-25,.cls-6{stroke:#000;}.cls-23{fill:#ee6565;}.cls-5{fill:#b189be;}.cls-5,.cls-6{font-size:58.21px;}.cls-24,.cls-6,.cls-26{stroke-width:.75px;}.cls-25{stroke-width:2px;}.cls-25,.cls-26,.cls-27{stroke-linecap:round;}.cls-26{stroke:#f48069;}.cls-27{stroke:#f26739;stroke-linejoin:round;stroke-width:3px;}</style></defs><g id="Layer_1-2"><g><rect class="cls-11" y=".12" width="502.44" height="695.17" transform="translate(502.44 695.42) rotate(180)"/><g><rect class="cls-19" x="270.05" y="388.65" width="47.71" height="180.62"/><rect class="cls-19" x="433.32" y="415.75" width="47.71" height="180.62"/><rect class="cls-20" x="313.69" y="419.23" width="47.71" height="180.62"/><rect class="cls-20" x="379.59" y="408.47" width="47.71" height="180.62"/><rect class="cls-20" x="454.72" y="431.89" width="47.71" height="155.29"/><rect class="cls-17" x="418.84" y="450.83" width="47.71" height="155.29"/><rect class="cls-20" x="322.92" y="390.7" width="29.26" height="131.85"/><rect class="cls-20" x="329.6" y="374.21" width="15.89" height="131.85"/><rect class="cls-18" x="349.23" y="450.83" width="45.91" height="180.62"/><rect class="cls-18" x="251.58" y="464.39" width="68.01" height="153.5"/><path class="cls-18" d="M358.12,450.83h37.02c0-18.84-16.71-34.35-37.02-34.35-.19,0-.38,0-.57,0l.57,34.34Z"/><polygon class="cls-20" points="337.55 343.17 332.45 394.62 342.65 394.62 337.55 343.17"/></g><rect class="cls-13" x="0" y="584.86" width="502.44" height="110.44" transform="translate(502.44 1280.15) rotate(180)"/><rect class="cls-23" x=".36" y="16.22" width="502.44" height="21.82"/><rect class="cls-14" x="0" y="620.78" width="251.57" height="74.51" transform="translate(251.58 1316.08) rotate(180)"/><rect class="cls-9" x="0" y="576.29" width="251.57" height="119" transform="translate(251.58 1271.58) rotate(180)"/><polygon class="cls-13" points="251.95 584.86 151.13 695.29 352.77 695.29 251.95 584.86"/><g><text class="cls-5" transform="translate(64.89 202.86) rotate(-5.01)"><tspan x="0" y="0">Sharing is Caring</tspan></text><text class="cls-6" transform="translate(64.89 202.86) rotate(-5.01)"><tspan x="0" y="0">Sharing is Caring</tspan></text></g><g><circle class="cls-21" cx="67.13" cy="548.54" r="58.02"/><circle cx="48.25" cy="534.79" r="10.86"/><circle class="cls-8" cx="50.95" cy="530.69" r="3.14"/><circle class="cls-8" cx="43.26" cy="538.62" r=".74"/><circle cx="86.37" cy="534.79" r="10.86"/><circle class="cls-8" cx="89.06" cy="530.69" r="3.14"/><circle class="cls-8" cx="81.38" cy="538.62" r=".74"/><path class="cls-12" d="M24.28,526.98c.02-1.65,.48-3.31,1.33-4.77s2.03-2.69,3.48-3.55,.13-2.98-1.26-2.16c-3.66,2.17-5.99,6.23-6.05,10.48-.02,1.61,2.48,1.61,2.5,0h0Z"/></g><rect x="33.42" y=".12" width="55.47" height="112.79"/><rect class="cls-22" x="32.8" y=".12" width="53.64" height="110.73"/><line class="cls-24" x1="33.42" y1="81.03" x2="86.61" y2="81.03"/><text class="cls-1" transform="translate(37.11 74.72)"><tspan x="0" y="0">March</tspan></text><text class="cls-1" transform="translate(37.35 74.72)"><tspan x="0" y="0">March</tspan></text><text class="cls-1" transform="translate(113.22 33.21)"><tspan x="0" y="0">Original story by: Daniel, Eric, Dariga &amp; Kobby</tspan></text><text class="cls-2" transform="translate(38.46 100.21)"><tspan x="0" y="0">2023</tspan></text><g><g><circle class="cls-16" cx="413.39" cy="81.03" r="28.86"/><circle class="cls-16" cx="442.25" cy="91.48" r="18.41"/><circle class="cls-16" cx="380.69" cy="85.85" r="18.41"/></g><g><circle class="cls-10" cx="418.47" cy="78.72" r="28.86"/><circle class="cls-10" cx="447.33" cy="89.17" r="18.41"/><circle class="cls-10" cx="385.77" cy="83.53" r="18.41"/></g></g><g><g><circle class="cls-16" cx="201.6" cy="94.01" r="28.86"/><circle class="cls-16" cx="235.46" cy="94.01" r="18.41"/><circle class="cls-16" cx="167.36" cy="112.42" r="18.41"/><circle class="cls-16" cx="167.36" cy="86.15" r="13.02"/></g><g><circle class="cls-10" cx="199.49" cy="92.83" r="28.86"/><circle class="cls-10" cx="233.35" cy="92.83" r="18.41"/><circle class="cls-10" cx="165.25" cy="111.24" r="18.41"/><circle class="cls-10" cx="165.25" cy="84.97" r="13.02"/></g></g><g><g><circle class="cls-16" cx="270.46" cy="317.15" r="28.86"/><circle class="cls-16" cx="304.33" cy="317.15" r="18.41"/><circle class="cls-16" cx="236.23" cy="335.57" r="18.41"/><circle class="cls-16" cx="236.23" cy="309.29" r="13.02"/></g><g><circle class="cls-10" cx="267.77" cy="315.98" r="28.86"/><circle class="cls-10" cx="301.64" cy="315.98" r="18.41"/><circle class="cls-10" cx="233.54" cy="334.39" r="18.41"/><circle class="cls-10" cx="233.54" cy="308.11" r="13.02"/></g></g><g><g><g><circle class="cls-16" cx="91.48" cy="253.98" r="28.86"/><circle class="cls-16" cx="121.15" cy="261.88" r="18.41"/><circle class="cls-16" cx="59.33" cy="261.64" r="18.41"/></g><g><circle class="cls-16" cx="119.13" cy="270.54" r="28.86"/><circle class="cls-16" cx="148.8" cy="278.44" r="18.41"/><circle class="cls-16" cx="86.98" cy="278.2" r="18.41"/></g></g><g><g><circle class="cls-10" cx="91.63" cy="249.56" r="28.86"/><circle class="cls-10" cx="121.3" cy="257.45" r="18.41"/><circle class="cls-10" cx="59.48" cy="257.21" r="18.41"/></g><g><circle class="cls-10" cx="119.28" cy="266.12" r="28.86"/><circle class="cls-10" cx="148.95" cy="274.01" r="18.41"/><circle class="cls-10" cx="87.13" cy="273.77" r="18.41"/></g></g></g><g><g><circle class="cls-16" cx="407.41" cy="259.09" r="28.86"/><circle class="cls-16" cx="437.18" cy="266.59" r="18.41"/><circle class="cls-16" cx="452.73" cy="267.47" r="13.02"/><circle class="cls-16" cx="375.36" cy="267.17" r="18.41"/><circle class="cls-16" cx="356.66" cy="277.17" r="12.15"/></g><g><circle class="cls-10" cx="411.47" cy="257.12" r="28.86"/><circle class="cls-10" cx="441.24" cy="264.62" r="18.41"/><circle class="cls-10" cx="456.79" cy="265.5" r="13.02"/><circle class="cls-10" cx="379.42" cy="265.19" r="18.41"/><circle class="cls-10" cx="360.72" cy="275.19" r="12.15"/></g></g><text class="cls-3" transform="translate(157.95 236.24) scale(1.06 1)"><tspan x="0" y="0">A Lunchbox Tale</tspan></text><text class="cls-4" transform="translate(157.24 236.24) scale(1.06 1)"><tspan x="0" y="0">A Lunchbox Tale</tspan></text><g><rect class="cls-15" x="132.34" y="539.26" width="96.01" height="66.93" rx="6.01" ry="6.01"/><rect class="cls-7" x="129.23" y="539.26" width="92.84" height="66.93" rx="6.01" ry="6.01"/><rect class="cls-27" x="157.04" y="523.76" width="44.71" height="17.99"/><rect class="cls-15" x="148.68" y="536.64" width="16.73" height="2.62"/><rect class="cls-15" x="193.38" y="536.64" width="16.73" height="2.62"/><line class="cls-26" x1="136.53" y1="544.74" x2="164.98" y2="544.74"/><line class="cls-26" x1="168.68" y1="544.74" x2="174.69" y2="544.74"/></g><path class="cls-25" d="M44.67,568.85c14.66,10.23,29.63,10.46,44.94,0"/></g></g></svg>