<?xml version="1.0" encoding="utf-8"?>
<!-- Generator: Adobe Illustrator 26.3.1, SVG Export Plug-In . SVG Version: 6.00 Build 0)  -->
<svg version="1.1" xmlns="http://www.w3.org/2000/svg" xmlns:xlink="http://www.w3.org/1999/xlink" x="0px" y="0px"
	 viewBox="0 0 1728 1296" style="enable-background:new 0 0 1728 1296;" xml:space="preserve">
<style type="text/css">
	.st0{fill:#8AD1EB;}
	.st1{fill:#BED7EB;stroke:#000000;stroke-miterlimit:10;}
	.st2{fill:#5196CF;stroke:#000000;stroke-miterlimit:10;}
	.st3{fill:#AD783B;stroke:#000000;stroke-miterlimit:10;}
	.st4{display:none;fill:#AD783B;stroke:#000000;stroke-miterlimit:10;}
	.st5{fill:#FFFFFF;stroke:#000000;stroke-miterlimit:10;}
	.st6{fill:#FCFDFF;}
	.st7{fill:none;stroke:#000000;stroke-width:3;stroke-miterlimit:10;}
	.st8{fill:#231F20;}
	.st9{fill:#6DCDEC;}
	.st10{fill:#28ABE2;}
	.st11{fill:#019AC5;}
	.st12{fill:#099AC5;}
	.st13{fill:#93918F;}
	.st14{fill:#ECDAC5;}
	.st15{fill:#92908E;}
	.st16{fill:none;stroke:#000000;stroke-width:6;stroke-miterlimit:10;}
	.st17{display:none;fill:#615151;stroke:#000000;stroke-miterlimit:10;}
	.st18{display:none;opacity:0.6;fill:#ADDBDB;stroke:#000000;stroke-miterlimit:10;}
	.st19{display:none;opacity:0.2706;fill:#FFFFFF;stroke:#FFFFFF;stroke-miterlimit:10;}
	.st20{display:none;fill:#E8E8E8;stroke:#000000;stroke-miterlimit:10;}
	.st21{fill:#AD7834;stroke:#000000;stroke-miterlimit:10;}
	.st22{display:none;fill:#BBE3A8;stroke:#000000;stroke-miterlimit:10;}
	.st23{fill:#4EB9B5;}
	.st24{fill:#73CFCC;}
	.st25{fill:#11130E;}
	.st26{fill:#11140F;}
	.st27{fill:#F0EDE5;}
	.st28{fill:#F1EEE7;}
	.st29{display:none;stroke:#000000;stroke-miterlimit:10;}
	.st30{fill:#CEB0D4;stroke:#000000;stroke-miterlimit:10;}
	.st31{fill:#4AC0B7;}
	.st32{display:none;fill:#ADDBDB;stroke:#FFFFFF;stroke-miterlimit:10;}
	.st33{stroke:#FFFFFF;stroke-miterlimit:10;}
	.st34{stroke:#000000;stroke-miterlimit:10;}
	.st35{fill:#E8B10C;stroke:#000000;stroke-miterlimit:10;}
	.st36{fill:#E8B10C;stroke:#FFFFFF;stroke-miterlimit:10;}
	.st37{fill:#E84E0C;stroke:#000000;stroke-miterlimit:10;}
	.st38{fill:#CF481B;stroke:#FFFFFF;stroke-miterlimit:10;}
	.st39{fill:#ADDBDB;stroke:#FFFFFF;stroke-miterlimit:10;}
	.st40{opacity:0.2706;fill:#FFFFFF;stroke:#FFFFFF;stroke-miterlimit:10;}
	.st41{fill:#D9C7C7;stroke:#000000;stroke-miterlimit:10;}
	.st42{opacity:0.3412;fill:#FFFFFF;stroke:#FFFFFF;stroke-miterlimit:10;}
	.st43{fill:#EDD585;}
	.st44{fill:#945151;}
	.st45{display:none;}
	.st46{display:inline;fill:#4EBAB6;}
	.st47{display:inline;fill:#73CFCD;}
	.st48{display:inline;fill:#11130E;}
	.st49{display:inline;fill:#11140F;}
	.st50{display:inline;fill:#F2EEE6;}
	.st51{display:inline;fill:#F3EFE7;}
	.st52{fill:#DEE3B6;}
	.st53{fill:#ADDBDB;}
	.st54{fill:#AFBABA;}
	.st55{opacity:0.6;fill:#FFFFFF;}
	.st56{fill:#D1C0C0;stroke:#C4B3B3;stroke-miterlimit:10;}
	.st57{opacity:7.843138e-02;}
	.st58{fill:#D1C0C0;}
	.st59{opacity:0.149;fill:none;stroke:#000000;stroke-width:4;stroke-miterlimit:10;}
	.st60{opacity:0.1294;fill:none;stroke:#000000;stroke-width:4;stroke-miterlimit:10;}
	.st61{opacity:0.1412;fill:none;stroke:#000000;stroke-width:4;stroke-miterlimit:10;}
	.st62{fill:#FFFFFF;}
	.st63{fill:#00FFFF;}
	.st64{opacity:0.3882;fill:#FFFFFF;}
	.st65{fill:none;stroke:#000000;stroke-miterlimit:10;}
	.st66{fill:#E3E3E3;stroke:#000000;stroke-miterlimit:10;}
	.st67{fill:#615151;stroke:#000000;stroke-miterlimit:10;}
	.st68{opacity:0.6;fill:#ADDBDB;stroke:#000000;stroke-miterlimit:10;}
	.st69{fill:#E8E8E8;stroke:#000000;stroke-miterlimit:10;}
	.st70{fill:#AD783B;stroke:#FFFFFF;stroke-miterlimit:10;}
	.st71{fill:#5196CF;stroke:#FFFFFF;stroke-miterlimit:10;}
	.st72{fill:#4AC0B7;stroke:#000000;stroke-miterlimit:10;}
	.st73{fill:#FFFFFF;stroke:#FFFFFF;stroke-miterlimit:10;}
	.st74{display:none;fill:#EDAFAF;stroke:#000000;stroke-miterlimit:10;}
	.st75{display:none;fill:#FFFFFF;stroke:#000000;stroke-miterlimit:10;}
	.st76{fill:#B09D9D;stroke:#FFFFFF;stroke-miterlimit:10;}
	.st77{fill:#167EA5;}
	.st78{fill:#45A0C6;}
	.st79{fill:#3C809C;}
	.st80{fill:#089EE3;}
	.st81{fill:#12A0E1;}
	.st82{fill:#079FE1;}
	.st83{fill:#3A8DB5;}
	.st84{fill:#1C90BD;}
	.st85{fill:#2F91BC;}
	.st86{fill:#349ACC;}
	.st87{fill:#44A3D0;}
	.st88{fill:#4797C5;}
	.st89{fill:#188FC3;}
	.st90{fill:#169DE3;}
	.st91{fill:#0199DD;}
	.st92{fill:#0C7FA6;}
	.st93{fill:#007FB4;}
	.st94{fill:#75CDF2;}
	.st95{fill:#019FE2;}
	.st96{fill:#009EE7;}
	.st97{fill:#129FE3;}
	.st98{fill:#0E91BE;}
	.st99{fill:#2C9BD1;}
	.st100{fill:#049FE3;}
	.st101{fill:#45A1D0;}
	.st102{fill:#4EBAB6;}
	.st103{fill:#F2EFE7;}
	.st104{fill:#FCFDFF;stroke:#000000;stroke-width:6;stroke-miterlimit:10;}
	.st105{fill:#FCFDFF;stroke:#000000;stroke-width:5;stroke-miterlimit:10;}
	.st106{fill:#FCFDFF;stroke:#000000;stroke-width:4;stroke-miterlimit:10;}
</style>
<g id="Scene1">
	<rect y="-5" class="st1" width="1726.4" height="1301"/>
	<rect x="439.8" y="436" class="st2" width="914" height="408"/>
	<rect x="138.8" y="844" class="st3" width="1492" height="54"/>
	<rect x="192.8" y="898" class="st3" width="1408" height="398"/>
	<rect x="494.8" y="492" class="st5" width="804" height="312"/>
	<g>
		<path d="M751.3,594.5h-91v-20.6h117.6v14.6c-43.8,55.5-53.8,96.7-57,168h-24.3C699.8,687.8,714.4,644.9,751.3,594.5z"/>
		<path d="M808.5,638.9c0-10.9,7.7-18.3,17.2-18.3c9.4,0,17.2,7.4,17.2,18.3c0,10.6-7.7,18-17.2,18
			C816.3,656.9,808.5,649.5,808.5,638.9z M808.5,741.9c0-10.9,7.7-18.3,17.2-18.3c9.4,0,17.2,7.4,17.2,18.3c0,10.6-7.7,18-17.2,18
			C816.3,760,808.5,752.5,808.5,741.9z"/>
		<path d="M868.9,734.2l12-15.5c10.9,11.4,25.2,21.5,46.7,21.5c22,0,37.8-12.9,37.8-33.2c0-21.8-14.9-36.3-58.4-36.3v-18
			c38.6,0,51.8-14.9,51.8-34.1c0-17.5-12-28.6-31.5-28.6c-15.2,0-28,7.7-38.9,18.3l-12.6-14.9c14-13.2,30.9-22.9,52.4-22.9
			c31.8,0,54.7,16.9,54.7,46.4c0,22-13.2,36.1-32.9,43.5v1.1c22,5.2,39.5,21.2,39.5,46.4c0,32.3-26.9,52.1-60.4,52.1
			C899.8,760,881.2,747.6,868.9,734.2z"/>
		<path d="M1010.9,735.1l11.4-15.7c10.9,10.9,24.6,20.9,46.1,20.9c22.3,0,39.8-16,39.8-41.5c0-25.2-15.2-39.8-38.6-39.8
			c-12.6,0-20.3,3.7-31.2,10.9l-12.6-8l6-87.9h91.6v20.6h-70.7l-4.9,53.8c8.6-4.6,16.9-7.4,28-7.4c30.9,0,56.4,17.7,56.4,57.2
			s-29.8,61.8-61.5,61.8C1041.5,760,1023.5,747.6,1010.9,735.1z"/>
	</g>
	<g>
		<path class="st6" d="M763.5,203.3c-148.7,67.5-146.2,95.4,4,103.7c-159.1,22.8-164.9,38.9-39.5,82.6
			c-152.2-10.4-172.5,6.9-105.7,90c-114.7-53.9-142.3-41.9-144.8,61.8c-65.8-84.8-103.1-81.4-193.4,19.6
			c29.3-106.3,4.4-112.9-129.4-34.2c86.9-102.4,68.1-122.3-93-103.7c149.5-60.6,150.7-78.5,5.1-93.3
			c158.4-20.6,169.9-38.2,60.1-92.1c139.7,23,168.9,2.9,112.3-82.7c99.6,60.1,114.3,55.3,118.6-46.9c65.6,82.9,77.2,78.2,156.1-21.3
			c-13.8,107,30.6,111.3,168.2,36.7C585.5,224,604.8,234.6,763.5,203.3z"/>
		<path class="st7" d="M763.5,203.3c-148.7,67.5-146.2,95.4,4,103.7c-159.1,22.8-164.9,38.9-39.5,82.6
			c-152.2-10.4-172.5,6.9-105.7,90c-114.7-53.9-142.3-41.9-144.8,61.8c-65.8-84.8-103.1-81.4-193.4,19.6
			c29.3-106.3,4.4-112.9-129.4-34.2c86.9-102.4,68.1-122.3-93-103.7c149.5-60.6,150.7-78.5,5.1-93.3
			c158.4-20.6,169.9-38.2,60.1-92.1c139.7,23,168.9,2.9,112.3-82.7c99.6,60.1,114.3,55.3,118.6-46.9c65.6,82.9,77.2,78.2,156.1-21.3
			c-13.8,107,30.6,111.3,168.2,36.7C585.5,224,604.8,234.6,763.5,203.3z"/>
	</g>
	<g>
		<path class="st8" d="M318.9,289.2c0.9,3.2,1,6.6,0.4,10.2c-0.7,3.6-1.9,7-3.8,10.2c-1.9,3.2-4.3,6.3-7.2,9.2
			c-2.9,2.9-6.1,5.5-9.6,7.9c-6.8,4.7-14.1,8.1-21.9,10.3c-3.3,0.9-6.5,1.5-9.5,1.8c0-16.8-1-33.5-2.9-50.1
			c-1.9-16.6-3.8-33.2-5.9-49.9c11.5-5.9,21.2-9.9,28.9-12.1c9.2-2.5,16.4-1.2,21.7,4.1c2,2,3.5,4.7,4.5,8.1c1,3.4,1.3,6.8,1,10.1
			c-0.3,3.3-0.9,6.4-2,9.3c-2.2,5.9-5.6,10.4-10,13.6C310.9,274.3,316.4,280.1,318.9,289.2z M282.7,265.7
			c10.2-5.5,14.9-10,13.9-13.6c-0.9-3.4-4.3-4.8-10.1-4.1c-1.5,0.1-2.7,0.3-3.8,0.6l-1.4,0.4c0.1,1,0.2,2.2,0.4,3.6
			c0.2,1.4,0.3,2.9,0.4,4.4c0.1,1.5,0.2,3,0.3,4.6C282.4,263.2,282.5,264.5,282.7,265.7z M286.2,305.2c7.7-3.1,12.7-6.8,14.9-11.3
			c1-2,1.2-3.9,0.6-5.8c-0.5-1.9-1.4-3.3-2.5-4.2c-1.1-0.9-2.4-1.5-3.9-1.8c-3-0.7-6-0.6-9.1,0.3l-1.2,0.3c-0.3,0.1-0.7,0.2-1,0.4
			c0.3,2.3,0.5,4.3,0.6,6c0.2,1.7,0.3,3.4,0.5,5c0.2,1.6,0.3,3.3,0.5,5C285.8,300.9,286,302.9,286.2,305.2z"/>
		<path class="st8" d="M325.8,323L317,222.8l41.4-15.4c-0.1,2.2,0,4.3,0,6.3c0.1,2,0.2,4,0.2,5.9c0.1,2,0.2,3.7,0.3,5.1
			c-2.5,1-6.1,2.1-10.6,3.4l-9,2.5l1.9,25.4c4.7-1.6,8.7-2.9,11.9-3.9c3.2-1,5.3-1.6,6.2-2c0.3,2.6,0.7,5.2,1.1,7.7
			c0.4,2.5,0.7,5.1,0.9,7.7c-0.9,0.4-2.4,0.8-4.4,1.4c-2,0.6-4.1,1.2-6.2,1.9c-2.2,0.7-4.6,1.5-7.3,2.3l2.3,26l18.6-8.5l2.9,15.7
			L325.8,323z"/>
		<path class="st8" d="M371.5,310.3l-8.8-100.1l41.4-15.4c-0.1,2.2,0,4.3,0,6.3c0.1,2,0.2,4,0.2,5.9c0.1,2,0.2,3.7,0.3,5.1
			c-2.5,1-6.1,2.1-10.6,3.4l-9,2.5l1.9,25.4c4.7-1.6,8.7-2.9,11.9-3.9c3.2-1,5.3-1.6,6.2-2c0.3,2.6,0.7,5.2,1.1,7.7
			c0.4,2.5,0.7,5.1,0.9,7.7c-0.9,0.4-2.4,0.8-4.4,1.4c-2,0.6-4.1,1.2-6.2,1.9c-2.2,0.7-4.6,1.5-7.3,2.3l2.3,26l18.6-8.5l2.9,15.7
			L371.5,310.3z"/>
		<path class="st8" d="M415.7,298.1c-2.1-43.3-4.5-76.6-7.3-100c8.8-5.5,15.6-9,20.4-10.3c4.8-1.3,8.8-1.7,11.9-1.1
			c3.1,0.6,5.9,1.8,8.2,3.6c4.2,3.3,7.4,8.8,9.5,16.5c1.4,5,1.8,10,1.2,15.2c-0.5,5.2-1.8,10-3.9,14.5c-2.1,4.5-4.8,8.3-8.2,11.6
			c-3.4,3.2-7.3,5.5-11.5,6.6l-1.4,0.4c0.4,7.8,1.4,18.4,3.1,32L415.7,298.1z M430.3,204.9c1.2,13.3,2.3,25.1,3.1,35.3
			c2.9-1.7,5.1-5,6.7-10c1.7-5.5,1.7-11.3,0-17.2c-0.9-3.3-2.4-5.6-4.3-6.9C433.9,204.8,432,204.4,430.3,204.9z"/>
		<path class="st8" d="M441.9,428.3c0.9,3.2,1,6.6,0.4,10.2c-0.7,3.6-1.9,7-3.8,10.2c-1.9,3.2-4.3,6.3-7.2,9.2
			c-2.9,2.9-6.1,5.5-9.6,7.9c-6.8,4.7-14.1,8.1-21.9,10.3c-3.3,0.9-6.5,1.5-9.5,1.8c0-16.8-1-33.5-2.9-50.1
			c-1.9-16.6-3.8-33.2-5.9-49.9c11.5-5.9,21.2-9.9,28.9-12.1c9.2-2.5,16.4-1.2,21.7,4.1c2,2,3.5,4.7,4.5,8.1c1,3.4,1.3,6.8,1,10.1
			c-0.3,3.3-0.9,6.4-2,9.3c-2.2,5.9-5.6,10.4-10,13.6C433.9,413.4,439.3,419.2,441.9,428.3z M405.6,404.8
			c10.2-5.5,14.9-10,13.9-13.6c-0.9-3.4-4.3-4.8-10.1-4.1c-1.5,0.1-2.7,0.3-3.8,0.6l-1.4,0.4c0.1,1,0.2,2.2,0.4,3.6
			c0.2,1.4,0.3,2.9,0.4,4.4c0.1,1.5,0.2,3,0.3,4.6C405.4,402.3,405.5,403.6,405.6,404.8z M409.2,444.3c7.7-3.1,12.7-6.8,14.9-11.3
			c1-2,1.2-3.9,0.6-5.8c-0.5-1.9-1.4-3.3-2.5-4.2c-1.1-0.9-2.4-1.5-3.9-1.8c-3-0.7-6-0.6-9.1,0.3l-1.2,0.3c-0.3,0.1-0.7,0.2-1,0.4
			c0.3,2.3,0.5,4.3,0.6,6c0.2,1.7,0.3,3.4,0.5,5c0.2,1.6,0.3,3.3,0.5,5C408.8,440,409,442,409.2,444.3z"/>
		<path class="st8" d="M448.8,462.1L440,361.9l41.4-15.4c-0.1,2.2,0,4.3,0,6.3c0.1,2,0.2,4,0.2,5.9c0.1,2,0.2,3.7,0.3,5.1
			c-2.5,1-6.1,2.1-10.6,3.4l-9,2.5l1.9,25.4c4.7-1.6,8.7-2.9,11.9-3.9c3.2-1,5.3-1.6,6.2-2c0.4,2.6,0.7,5.2,1.1,7.7
			c0.4,2.5,0.7,5.1,0.9,7.7c-0.9,0.4-2.4,0.8-4.4,1.4c-2,0.6-4.1,1.2-6.2,1.9c-2.2,0.7-4.6,1.5-7.3,2.3l2.3,26l18.6-8.5l2.9,15.7
			L448.8,462.1z"/>
		<path class="st8" d="M494.5,449.5l-8.8-100.1l41.4-15.4c-0.1,2.2,0,4.3,0,6.3c0.1,2,0.2,4,0.2,5.9c0.1,2,0.2,3.7,0.3,5.1
			c-2.5,1-6.1,2.1-10.6,3.4l-9,2.5l1.9,25.4c4.7-1.6,8.7-2.9,11.9-3.9c3.2-1,5.3-1.6,6.2-2c0.4,2.6,0.7,5.2,1.1,7.7
			c0.4,2.5,0.7,5.1,0.9,7.7c-0.9,0.4-2.4,0.8-4.4,1.4c-2,0.6-4.1,1.2-6.2,1.9c-2.2,0.7-4.6,1.5-7.3,2.3l2.3,26l18.6-8.5l2.9,15.7
			L494.5,449.5z"/>
		<path class="st8" d="M538.7,437.2c-2.1-43.3-4.5-76.6-7.3-100c8.8-5.5,15.6-9,20.4-10.3c4.8-1.3,8.8-1.7,11.9-1.1
			c3.1,0.6,5.9,1.8,8.2,3.6c4.2,3.3,7.4,8.8,9.5,16.5c1.4,5,1.8,10,1.2,15.2c-0.5,5.2-1.8,10-3.9,14.5c-2.1,4.5-4.8,8.3-8.2,11.6
			c-3.4,3.2-7.3,5.5-11.5,6.6l-1.4,0.4c0.4,7.8,1.4,18.4,3.1,32L538.7,437.2z M553.2,344c1.2,13.3,2.3,25.1,3.1,35.3
			c2.9-1.7,5.1-5,6.7-10c1.7-5.5,1.7-11.3,0-17.2c-0.9-3.3-2.4-5.6-4.3-6.9C556.8,344,555,343.5,553.2,344z"/>
	</g>
	<g>
		<path class="st6" d="M1695,321.5c-160.3-22.2-173.3,2.7-52.8,89.4c-144.8-65.3-158.4-55-77.9,48c-121.1-89.6-147.5-86-137.6,18.4
			c-66-105.8-95.7-110.7-155.2-26.4c-8.1-105.3-41.3-122.7-173.2-88.2c83.4-71.9,66.1-90.9-90.3-98.8
			c129.8-37.5,124.7-64.4-22.1-137.5c159.8,31.5,170.5,17.2,54.8-75.7c145.6,70,164.9,61.4,100.4-44.9
			c106.3,96.6,141.7,95.4,139.1-8.7c52.5,106,67.4,110,125.1,24.8c11.5,106.8,23.9,109.1,142.8,66.5
			c-68.2,84.1-33.2,111.7,121.6,121.9C1535.3,244.1,1545.9,263.4,1695,321.5z"/>
		<path class="st7" d="M1695,321.5c-160.3-22.2-173.3,2.7-52.8,89.4c-144.8-65.3-158.4-55-77.9,48c-121.1-89.6-147.5-86-137.6,18.4
			c-66-105.8-95.7-110.7-155.2-26.4c-8.1-105.3-41.3-122.7-173.2-88.2c83.4-71.9,66.1-90.9-90.3-98.8
			c129.8-37.5,124.7-64.4-22.1-137.5c159.8,31.5,170.5,17.2,54.8-75.7c145.6,70,164.9,61.4,100.4-44.9
			c106.3,96.6,141.7,95.4,139.1-8.7c52.5,106,67.4,110,125.1,24.8c11.5,106.8,23.9,109.1,142.8,66.5
			c-68.2,84.1-33.2,111.7,121.6,121.9C1535.3,244.1,1545.9,263.4,1695,321.5z"/>
	</g>
	<g>
		<path class="st8" d="M1275.2,153.9c-1,3.2-2.7,6.1-5.2,8.8c-2.5,2.6-5.4,4.8-8.7,6.5c-3.3,1.7-7,3-11,3.8c-4,0.8-8.1,1.3-12.3,1.4
			c-8.2,0.3-16.2-0.8-24-3.2c-3.3-1-6.3-2.2-9-3.6c9.1-14.1,17.3-28.7,24.7-43.6c7.4-14.9,14.8-30,22.1-45.2
			c12.9,1.3,23.2,3.1,30.9,5.5c9.1,2.8,14.4,7.9,16,15.2c0.7,2.8,0.5,5.9-0.6,9.3c-1.1,3.4-2.6,6.4-4.6,9c-2,2.6-4.2,4.8-6.7,6.7
			c-5.1,3.7-10.3,5.7-15.8,6C1276.6,137,1278.1,144.8,1275.2,153.9z M1239.2,149.6c8.1,1.6,14.4,1.1,18.7-1.4
			c1.9-1.1,3.1-2.6,3.7-4.5c0.6-1.9,0.6-3.5,0.2-4.9c-0.5-1.3-1.3-2.5-2.3-3.6c-2.2-2.2-4.8-3.8-7.8-4.7l-1.2-0.4
			c-0.3-0.1-0.7-0.2-1.1-0.2c-1,2.1-1.9,3.9-2.8,5.4c-0.8,1.5-1.6,3-2.3,4.5c-0.7,1.4-1.5,2.9-2.3,4.5
			C1241.1,145.7,1240.2,147.5,1239.2,149.6z M1257.5,114.5c11.6,1,17.9-0.3,19-3.9c1.1-3.4-1.1-6.3-6.3-8.9
			c-1.3-0.7-2.5-1.2-3.5-1.5l-1.4-0.4c-0.5,0.9-1,2-1.7,3.3c-0.6,1.3-1.3,2.6-2,3.9c-0.7,1.3-1.4,2.7-2.2,4
			C1258.7,112.2,1258,113.4,1257.5,114.5z"/>
		<path class="st8" d="M1262.8,186l46.8-89l43.1,9.5c-1.2,1.8-2.3,3.6-3.4,5.3c-1,1.7-2,3.4-3,5.1c-1,1.7-1.8,3.2-2.5,4.5
			c-2.7-0.5-6.3-1.5-10.8-2.9l-8.9-2.8L1312,138c4.8,1.2,8.9,2.3,12.1,3.2c3.2,0.9,5.3,1.5,6.3,1.7c-1.1,2.4-2.2,4.7-3.3,7
			c-1,2.3-2.2,4.6-3.4,7c-1-0.2-2.5-0.6-4.5-1.2c-2-0.6-4.1-1.2-6.3-1.7c-2.2-0.6-4.6-1.3-7.3-2l-12.2,23.1l20.3,2.9l-6,14.8
			L1262.8,186z"/>
		<path class="st8" d="M1308.1,200.1l46.8-89l43.1,9.5c-1.2,1.8-2.3,3.6-3.4,5.3c-1,1.7-2,3.4-3,5.1c-1,1.7-1.8,3.2-2.5,4.5
			c-2.7-0.5-6.3-1.5-10.8-2.9l-8.9-2.8l-12.1,22.4c4.8,1.2,8.9,2.3,12.1,3.2c3.2,0.9,5.3,1.5,6.3,1.7c-1.1,2.4-2.2,4.7-3.3,7
			c-1,2.3-2.2,4.6-3.4,7c-1-0.2-2.5-0.6-4.5-1.2c-2-0.6-4.1-1.2-6.3-1.7c-2.2-0.6-4.6-1.3-7.3-2l-12.2,23.1l20.3,2.9l-6,14.8
			L1308.1,200.1z"/>
		<path class="st8" d="M1351.9,213.8c21.7-37.5,37.6-66.9,47.9-88c10.4,0.1,18,0.9,22.7,2.4c4.8,1.5,8.3,3.3,10.6,5.5
			c2.3,2.2,4,4.7,5,7.5c1.8,5,1.4,11.4-1,19c-1.5,4.9-3.9,9.4-7.2,13.5c-3.3,4.1-7,7.4-11.1,10.1c-4.1,2.6-8.5,4.4-13.2,5.3
			c-4.6,0.9-9.1,0.7-13.3-0.7l-1.4-0.4c-3.9,6.7-8.8,16.3-14.7,28.5L1351.9,213.8z M1414.5,143.3c-6.2,11.8-11.6,22.3-16.5,31.4
			c3.4,0.2,7-1.4,11-4.8c4.4-3.8,7.5-8.6,9.3-14.4c1-3.3,1.1-6,0.1-8.1C1417.6,145.1,1416.3,143.8,1414.5,143.3z"/>
		<path class="st8" d="M1303.4,337.4c-1,3.2-2.7,6.1-5.2,8.8c-2.5,2.6-5.4,4.8-8.7,6.5c-3.3,1.7-7,3-11,3.8c-4,0.8-8.1,1.3-12.3,1.4
			c-8.2,0.3-16.2-0.8-24-3.2c-3.3-1-6.3-2.2-9-3.6c9.1-14.1,17.3-28.7,24.7-43.6c7.4-14.9,14.8-30,22.1-45.2
			c12.9,1.3,23.2,3.1,30.9,5.5c9.1,2.8,14.4,7.9,16,15.2c0.7,2.8,0.5,5.9-0.6,9.3c-1.1,3.4-2.6,6.4-4.6,9c-2,2.6-4.2,4.8-6.7,6.7
			c-5.1,3.7-10.3,5.7-15.8,6C1304.7,320.5,1306.2,328.3,1303.4,337.4z M1267.3,333.1c8.1,1.6,14.4,1.1,18.7-1.4
			c1.9-1.1,3.1-2.6,3.7-4.5c0.6-1.9,0.6-3.5,0.2-4.9c-0.5-1.3-1.3-2.6-2.3-3.6c-2.2-2.2-4.8-3.8-7.8-4.7l-1.2-0.4
			c-0.3-0.1-0.7-0.2-1.1-0.2c-1,2.1-1.9,3.9-2.8,5.4c-0.8,1.5-1.6,3-2.3,4.5c-0.7,1.4-1.5,2.9-2.3,4.5
			C1269.2,329.3,1268.3,331.1,1267.3,333.1z M1285.6,298c11.6,1,17.9-0.3,19-3.9c1.1-3.4-1.1-6.3-6.3-8.9c-1.3-0.7-2.5-1.2-3.5-1.5
			l-1.4-0.4c-0.5,0.9-1,2-1.7,3.3c-0.6,1.3-1.3,2.6-2,3.9s-1.4,2.7-2.2,4C1286.8,295.8,1286.1,297,1285.6,298z"/>
		<path class="st8" d="M1290.9,369.5l46.8-89l43.1,9.5c-1.2,1.8-2.3,3.6-3.4,5.3c-1,1.7-2,3.4-3,5.1c-1,1.7-1.8,3.2-2.5,4.5
			c-2.7-0.5-6.3-1.5-10.8-2.9l-8.9-2.8l-12.1,22.4c4.8,1.2,8.9,2.3,12.1,3.2c3.2,0.9,5.3,1.5,6.3,1.7c-1.1,2.4-2.2,4.7-3.3,7
			c-1,2.3-2.2,4.6-3.4,7c-1-0.2-2.5-0.6-4.5-1.2c-2-0.6-4.1-1.2-6.3-1.7c-2.2-0.6-4.6-1.3-7.3-2l-12.2,23.1l20.3,2.9l-6,14.8
			L1290.9,369.5z"/>
		<path class="st8" d="M1336.2,383.6l46.8-89l43.1,9.5c-1.2,1.8-2.3,3.6-3.4,5.3c-1,1.7-2,3.4-3,5.1c-1,1.7-1.8,3.2-2.5,4.5
			c-2.7-0.5-6.3-1.5-10.8-2.9l-8.9-2.8l-12.1,22.4c4.8,1.2,8.9,2.3,12.1,3.2c3.2,0.9,5.3,1.5,6.3,1.7c-1.1,2.4-2.2,4.7-3.3,7
			c-1,2.3-2.2,4.6-3.4,7c-1-0.2-2.5-0.6-4.5-1.2c-2-0.6-4.1-1.2-6.3-1.7c-2.2-0.6-4.6-1.3-7.3-2l-12.2,23.1l20.3,2.9l-6,14.8
			L1336.2,383.6z"/>
		<path class="st8" d="M1380,397.3c21.7-37.5,37.6-66.9,47.9-88c10.4,0.1,18,0.9,22.7,2.4c4.8,1.5,8.3,3.3,10.6,5.5
			c2.3,2.2,4,4.7,5,7.5c1.8,5,1.4,11.4-1,19c-1.5,4.9-3.9,9.4-7.2,13.5c-3.3,4.1-7,7.4-11.1,10.1c-4.1,2.6-8.5,4.4-13.2,5.3
			c-4.6,0.9-9.1,0.7-13.3-0.7l-1.4-0.4c-3.9,6.7-8.8,16.3-14.7,28.5L1380,397.3z M1442.6,326.8c-6.2,11.8-11.6,22.3-16.5,31.4
			c3.4,0.2,7-1.4,11-4.8c4.4-3.8,7.5-8.6,9.3-14.4c1-3.3,1.1-6,0.1-8.1C1445.7,328.7,1444.4,327.3,1442.6,326.8z"/>
	</g>
</g>
<g id="Scene_2">
</g>
<g id="Scene_3">
</g>
<g id="Layer_10">
	<g id="Layer_12">
	</g>
</g>
<g id="Scene_4">
	<g id="Layer_7">
		<g id="Layer_6">
		</g>
	</g>
</g>
<g id="Layer_8">
</g>
<g id="Layer_9">
</g>
<g id="Scene3">
</g>
<g id="Layer_11">
</g>
</svg>
