<?xml version="1.0" encoding="UTF-8"?><svg id="Layer_2" xmlns="http://www.w3.org/2000/svg" viewBox="0 0 1862.88 1311.55"><defs><style>.cls-1{stroke-width:5px;}.cls-1,.cls-2,.cls-3,.cls-4,.cls-5,.cls-6,.cls-7,.cls-8,.cls-9,.cls-10{stroke:#000;stroke-miterlimit:10;}.cls-1,.cls-11,.cls-3,.cls-10{fill:#fcfdff;}.cls-2{fill:none;stroke-width:3px;}.cls-12{font-family:SourceSansPro-Regular, 'Source Sans Pro';font-size:178.05px;}.cls-13{fill:#f0ede5;}.cls-14{fill:#f1eee7;}.cls-15{fill:#231f20;}.cls-16{fill:#11140f;}.cls-17{fill:#11130e;}.cls-18{fill:#4eb9b5;}.cls-3{stroke-width:4px;}.cls-4{fill:#fff;}.cls-5{fill:#ad7834;}.cls-6{fill:#ad783b;}.cls-7{fill:#ceb0d4;}.cls-8{fill:#bed7eb;}.cls-9{fill:#5196cf;}.cls-10{stroke-width:6px;}</style></defs><g id="Scene1"><rect class="cls-8" x="52.86" y=".5" width="1809.52" height="1309"/><g><path class="cls-11" d="M1752.19,430.97c-71.78-9.92-77.6,1.21-23.64,40.01-64.83-29.26-70.93-24.62-34.88,21.51-54.21-40.1-66.03-38.49-61.61,8.25-29.56-47.39-42.83-49.54-69.46-11.83-3.64-47.16-18.51-54.94-77.56-39.47,37.35-32.19,29.58-40.7-40.43-44.23,58.11-16.79,55.83-28.82-9.89-61.58,71.54,14.1,76.33,7.7,24.53-33.89,65.18,31.33,73.81,27.5,44.94-20.12,47.57,43.23,63.45,42.71,62.3-3.92,23.5,47.45,30.17,49.23,56.02,11.08,5.15,47.81,10.7,48.86,63.93,29.79-30.54,37.65-14.87,50.02,54.44,54.59-60.17,15.16-55.46,23.8,11.31,49.79Z"/><path class="cls-2" d="M1752.19,430.97c-71.78-9.92-77.6,1.21-23.64,40.01-64.83-29.26-70.93-24.62-34.88,21.51-54.21-40.1-66.03-38.49-61.61,8.25-29.56-47.39-42.83-49.54-69.46-11.83-3.64-47.16-18.51-54.94-77.56-39.47,37.35-32.19,29.58-40.7-40.43-44.23,58.11-16.79,55.83-28.82-9.89-61.58,71.54,14.1,76.33,7.7,24.53-33.89,65.18,31.33,73.81,27.5,44.94-20.12,47.57,43.23,63.45,42.71,62.3-3.92,23.5,47.45,30.17,49.23,56.02,11.08,5.15,47.81,10.7,48.86,63.93,29.79-30.54,37.65-14.87,50.02,54.44,54.59-60.17,15.16-55.46,23.8,11.31,49.79Z"/></g><g><path class="cls-15" d="M1564.27,355.92c-.45,1.43-1.23,2.74-2.34,3.92-1.11,1.18-2.41,2.16-3.91,2.92-1.49,.77-3.13,1.34-4.93,1.71-1.79,.37-3.63,.59-5.52,.64-3.69,.12-7.28-.36-10.76-1.44-1.47-.46-2.81-1-4.01-1.63,4.05-6.33,7.74-12.85,11.06-19.54,3.32-6.69,6.61-13.43,9.88-20.23,5.77,.57,10.37,1.39,13.82,2.46,4.06,1.27,6.45,3.54,7.17,6.82,.29,1.24,.2,2.62-.27,4.15-.48,1.53-1.16,2.88-2.06,4.04-.89,1.17-1.9,2.17-3.01,3.01-2.26,1.67-4.62,2.57-7.08,2.7,2.57,2.92,3.22,6.42,1.95,10.48Zm-16.15-1.92c3.64,.71,6.42,.5,8.35-.64,.83-.5,1.39-1.18,1.65-2.03,.27-.85,.29-1.58,.07-2.17-.22-.6-.57-1.14-1.05-1.63-.97-.98-2.13-1.68-3.48-2.1l-.52-.16c-.16-.05-.32-.08-.48-.09-.46,.92-.87,1.73-1.23,2.42-.37,.69-.71,1.36-1.04,2-.33,.64-.67,1.31-1.04,2-.37,.69-.78,1.5-1.23,2.42Zm8.21-15.72c5.17,.43,8.01-.16,8.5-1.74,.47-1.51-.47-2.84-2.83-4-.58-.31-1.11-.54-1.57-.68l-.64-.2c-.21,.4-.46,.89-.74,1.46-.28,.57-.58,1.16-.9,1.76-.32,.6-.64,1.2-.97,1.8-.33,.6-.62,1.13-.85,1.61Z"/><path class="cls-15" d="M1558.7,370.3l20.95-39.83,19.31,4.24c-.55,.81-1.05,1.59-1.5,2.37-.45,.77-.9,1.53-1.35,2.29-.45,.75-.83,1.42-1.13,2-1.2-.25-2.8-.68-4.81-1.31l-4.01-1.25-5.42,10.03c2.16,.55,3.97,1.02,5.41,1.43,1.44,.41,2.38,.66,2.82,.75-.51,1.07-.99,2.12-1.46,3.14-.47,1.02-.97,2.06-1.52,3.13-.44-.09-1.1-.27-2-.53-.9-.26-1.83-.52-2.81-.78-.98-.26-2.08-.56-3.29-.9l-5.45,10.34,9.08,1.3-2.7,6.61-20.13-3.03Z"/><path class="cls-15" d="M1578.96,376.61l20.95-39.83,19.31,4.24c-.55,.81-1.05,1.59-1.5,2.37-.45,.77-.9,1.53-1.35,2.29-.45,.75-.83,1.42-1.13,2-1.2-.25-2.8-.68-4.81-1.31l-4.01-1.25-5.42,10.03c2.16,.55,3.97,1.02,5.41,1.43,1.44,.41,2.38,.66,2.82,.75-.51,1.07-.99,2.12-1.46,3.14-.47,1.02-.97,2.06-1.52,3.13-.44-.09-1.1-.27-2-.53-.9-.26-1.83-.52-2.81-.78-.98-.26-2.08-.56-3.29-.9l-5.45,10.34,9.08,1.3-2.7,6.61-20.13-3.03Z"/><path class="cls-15" d="M1598.57,382.73c9.7-16.8,16.85-29.94,21.46-39.41,4.65,.05,8.04,.41,10.17,1.07,2.13,.66,3.71,1.49,4.74,2.46,1.03,.98,1.78,2.09,2.24,3.34,.79,2.24,.64,5.08-.43,8.53-.69,2.21-1.76,4.22-3.22,6.03-1.46,1.82-3.12,3.32-4.97,4.5-1.86,1.18-3.82,1.97-5.9,2.36-2.08,.39-4.06,.29-5.96-.3l-.64-.2c-1.75,3.02-3.95,7.28-6.6,12.78l-10.91-1.17Zm28.06-31.56c-2.76,5.3-5.22,9.99-7.38,14.06,1.5,.09,3.15-.63,4.94-2.15,1.97-1.68,3.36-3.83,4.18-6.47,.46-1.47,.48-2.68,.05-3.64-.42-.96-1.02-1.56-1.79-1.8Z"/><path class="cls-15" d="M1576.85,438.1c-.45,1.43-1.23,2.74-2.34,3.92-1.11,1.18-2.42,2.16-3.9,2.92-1.49,.77-3.14,1.34-4.93,1.71-1.79,.38-3.63,.59-5.52,.64-3.69,.12-7.27-.36-10.76-1.44-1.47-.46-2.81-1-4.01-1.63,4.06-6.33,7.74-12.85,11.06-19.54,3.32-6.69,6.61-13.43,9.88-20.23,5.77,.57,10.37,1.39,13.82,2.46,4.06,1.27,6.45,3.54,7.17,6.82,.29,1.24,.2,2.62-.27,4.15-.48,1.53-1.16,2.88-2.06,4.04-.89,1.16-1.9,2.17-3.01,3.01-2.26,1.67-4.62,2.57-7.08,2.7,2.57,2.92,3.22,6.42,1.95,10.48Zm-16.15-1.92c3.64,.71,6.42,.5,8.35-.64,.84-.5,1.39-1.18,1.65-2.03,.27-.85,.29-1.58,.07-2.17-.22-.6-.57-1.14-1.05-1.63-.97-.98-2.13-1.68-3.48-2.1l-.52-.16c-.16-.05-.32-.08-.48-.09-.46,.92-.87,1.73-1.23,2.42-.37,.69-.71,1.36-1.04,2-.33,.64-.67,1.31-1.04,2-.36,.69-.78,1.5-1.23,2.42Zm8.21-15.72c5.17,.43,8.01-.16,8.5-1.74,.47-1.51-.47-2.84-2.83-4-.58-.31-1.11-.54-1.57-.68l-.64-.2c-.21,.4-.46,.89-.74,1.46-.28,.57-.58,1.16-.9,1.76-.32,.6-.64,1.2-.97,1.8-.34,.6-.62,1.13-.85,1.61Z"/><path class="cls-15" d="M1571.29,452.47l20.95-39.83,19.31,4.24c-.55,.81-1.05,1.59-1.5,2.37-.45,.77-.9,1.53-1.35,2.29-.45,.75-.82,1.42-1.13,2-1.2-.25-2.8-.68-4.81-1.31l-4-1.25-5.42,10.03c2.16,.55,3.97,1.03,5.41,1.43,1.44,.41,2.38,.66,2.82,.75-.5,1.07-.99,2.12-1.46,3.14-.47,1.02-.97,2.06-1.52,3.12-.44-.09-1.1-.27-2-.53-.9-.26-1.83-.52-2.81-.78-.98-.26-2.08-.56-3.29-.9l-5.45,10.34,9.08,1.3-2.7,6.61-20.13-3.03Z"/><path class="cls-15" d="M1591.54,458.79l20.95-39.83,19.31,4.24c-.55,.81-1.05,1.59-1.5,2.37-.45,.77-.9,1.53-1.35,2.29-.45,.75-.82,1.42-1.13,2-1.2-.25-2.8-.68-4.81-1.31l-4-1.25-5.42,10.03c2.16,.55,3.97,1.03,5.41,1.43,1.44,.41,2.38,.66,2.82,.75-.5,1.07-.99,2.12-1.46,3.14-.47,1.02-.97,2.06-1.52,3.12-.44-.09-1.1-.27-2-.53-.9-.26-1.83-.52-2.81-.78-.98-.26-2.08-.56-3.29-.9l-5.45,10.34,9.08,1.3-2.7,6.61-20.13-3.03Z"/><path class="cls-15" d="M1611.16,464.91c9.7-16.8,16.85-29.94,21.46-39.41,4.65,.05,8.04,.41,10.17,1.07s3.71,1.49,4.74,2.46c1.03,.98,1.78,2.09,2.24,3.34,.79,2.24,.64,5.08-.43,8.53-.69,2.21-1.76,4.22-3.22,6.03s-3.12,3.32-4.97,4.5c-1.86,1.18-3.82,1.97-5.9,2.36-2.08,.39-4.06,.29-5.96-.3l-.64-.2c-1.75,3.02-3.95,7.28-6.6,12.78l-10.91-1.17Zm28.05-31.56c-2.76,5.3-5.22,9.98-7.38,14.06,1.5,.09,3.15-.63,4.94-2.15,1.97-1.68,3.36-3.83,4.18-6.47,.46-1.47,.48-2.69,.05-3.64-.42-.96-1.02-1.56-1.79-1.8Z"/></g></g><g id="Scene_2"><rect class="cls-6" x="1233.34" y="812.32" width="629.04" height="33.59"/><rect class="cls-6" x="1256.11" y="845.92" width="593.63" height="380"/><rect class="cls-9" x="1360.25" y="558.5" width="385.35" height="253.82"/><rect class="cls-4" x="1383.43" y="593.34" width="338.98" height="194.1"/><text class="cls-12" transform="translate(1447.88 757.9) scale(.68 1)"><tspan x="0" y="0">7:35</tspan></text><ellipse class="cls-5" cx="749.55" cy="762.56" rx="500" ry="225"/><rect class="cls-5" x="62.38" y="762.56" width="1428.19" height="283.47"/><g><path class="cls-18" d="M431.47,1053.59c0-25.93,0-51.86,0-77.8,1.41-5.01,3.16-9.96,4.17-15.05,15.41-77.61,52.62-141.32,117.61-188.05,71.55-51.45,150.64-69.58,236.94-53.78,86.87,15.9,152.15,65.16,200.31,137.45,28.53,42.83,42.23,91.5,43.88,142.85,2.15,66.77-13.87,128.18-54.22,183.08-46.1,62.71-105.25,104.44-181.32,121.73-9.36,2.13-18.55,4.99-27.83,7.52h-75.68c-2.15-1.26-4.18-3.37-6.45-3.65-58.12-7.3-108.76-32.24-153.06-69.06-55.68-46.29-88.31-106.71-100.5-178.18-.43-2.5-2.53-4.72-3.85-7.07Zm401.97-167.88c-32.14-.03-56.32,24.03-56.29,56,.04,31.16,24.62,56.12,55.46,56.28,31,.17,56.7-25.4,56.74-56.46,.04-30.79-25-55.8-55.91-55.82Zm-198.45,0c-31.27-.02-55.9,24.23-56.2,55.34-.3,31.18,25.26,57.36,56.17,56.86,30.1-.49,55.65-22.31,56.16-56.77,.46-30.74-25.03-55.4-56.12-55.43Z"/><path class="cls-17" d="M833.45,885.71c30.91,.03,55.95,25.03,55.91,55.82-.04,31.05-25.74,56.63-56.74,56.46-30.84-.17-55.42-25.12-55.46-56.28-.04-31.96,24.15-56.02,56.29-56Zm13.15,51.2c8.84,.17,16.24-6.96,16.5-15.9,.26-9.01-6.62-16.51-15.48-16.89-9.16-.39-17.27,7.32-17.27,16.4,0,8.62,7.54,16.22,16.26,16.39Z"/><path class="cls-16" d="M635,885.71c31.09,.02,56.58,24.68,56.12,55.43-.51,34.46-26.06,56.28-56.16,56.77-30.91,.5-56.47-25.68-56.17-56.86,.3-31.11,24.93-55.36,56.2-55.34Zm29.91,35.08c.08-9.17-6.69-16.43-15.58-16.68-9.13-.26-17.07,7.57-16.9,16.67,.17,8.77,7.64,16.13,16.38,16.13,8.93,0,16.01-7.09,16.1-16.11Z"/><path class="cls-13" d="M846.59,936.91c-8.72-.17-16.26-7.77-16.26-16.39,0-9.08,8.12-16.79,17.27-16.4,8.86,.37,15.74,7.88,15.48,16.89-.26,8.94-7.66,16.07-16.5,15.9Z"/><path class="cls-14" d="M664.91,920.79c-.08,9.03-7.16,16.11-16.1,16.11-8.74,0-16.22-7.36-16.38-16.13-.17-9.09,7.77-16.92,16.9-16.67,8.89,.25,15.67,7.5,15.58,16.68Z"/></g><polyline class="cls-7" points="78.58 1309.5 62.27 1239.48 52.86 1150.88 62.27 1046.03 145.88 977.98 260.07 930.82 425.25 907.96 612.86 877.95 812.7 870.8 998.27 876.52 1094.12 893.67 1183.84 923.68 1279.68 947.97 1383.69 977.98 1485.65 992.27 1573.33 1066.57 1595.76 1125.16 1618.2 1172.32 1632.47 1252.34 1672.86 1309.5"/></g><g id="Layer_11"><path class="cls-10" d="M855.37,402.5c-5.99-68.99-66.31-120.01-134.71-113.96-2.55,.23-5.02,.68-7.52,1.05-29.51-78-106.24-130.64-192.34-125.97-33.73-72.61-109.58-119.95-193.38-112.54-77.48,6.85-140.18,58.64-165.57,127.59-14.33-4.19-29.61-5.94-45.37-4.55C48.07,180.17-2.52,241,3.48,309.99c6,68.99,66.31,120.01,134.71,113.96,18.9-1.67,36.36-7.65,51.72-16.7-.18,5.12-.16,10.29,.3,15.53,5.99,68.99,66.31,120.01,134.71,113.96,28.7-2.54,54.18-14.8,73.74-33.18,38.98,36.5,92.39,57.03,149.54,51.98,40.57-3.59,77.12-19.5,106.4-43.72,24,19.1,54.92,29.45,87.77,26.55,68.4-6.05,118.99-66.88,112.99-135.87Z"/><path class="cls-15" d="M285.1,199.06c-.76,3.68-5.76,11.67-15.02,23.95-16.4,21.65-36.92,45.09-61.55,70.32,10.34-.22,19.58-.37,27.73-.45,8.15-.08,15.31-.12,21.48-.12,2,0,3.57,.69,4.71,2.07s1.49,3.07,1.06,5.08c-.76,3.74-3.17,6.14-7.23,7.23-1.95,.49-5.41,.73-10.39,.73h-4.51c-1.81,0-3.97,.03-6.46,.08-2.44,.05-4.56,.09-6.37,.12-1.81,.03-3.34,.04-4.59,.04-1.79,0-4.02-.01-6.7-.04-2.68-.03-5.81-.07-9.38-.12-3.57-.05-6.69-.08-9.34-.08h-6.74c-5.03,0-7.01-2.33-5.93-6.98,.38-2.06,4.14-6.98,11.29-14.78,8.23-9.04,15.21-16.73,20.95-23.06,5.74-6.33,10.31-11.45,13.72-15.35,6.33-7.31,12.17-14.26,17.5-20.87,5.33-6.6,10.22-12.94,14.66-19-1.19,.05-4.32,.08-9.38,.08h-21.23c-5.58,0-12.21,.24-19.89,.73-2-4.01-2.71-7.39-2.11-10.15,.87-4.44,5.9-6.66,15.1-6.66,.65,0,1.46,.01,2.44,.04,.97,.03,2.14,.07,3.49,.12,1.35,.05,2.52,.1,3.49,.12,.97,.03,1.79,.04,2.44,.04,2.27,0,5.1-.01,8.49-.04,3.38-.03,7.35-.07,11.9-.12,9.09-.16,15.92-.24,20.46-.24,2.11,0,3.75,.69,4.91,2.07,1.16,1.38,1.5,3.13,1.01,5.24Z"/><path class="cls-15" d="M533.78,300.52c-.76,3.68-5.76,11.67-15.02,23.95-16.4,21.65-36.92,45.09-61.55,70.32,10.34-.22,19.58-.37,27.73-.45,8.15-.08,15.31-.12,21.48-.12,2,0,3.57,.69,4.71,2.07s1.49,3.07,1.06,5.08c-.76,3.74-3.17,6.14-7.23,7.23-1.95,.49-5.41,.73-10.39,.73h-4.51c-1.81,0-3.97,.03-6.46,.08-2.44,.05-4.56,.09-6.37,.12-1.81,.03-3.34,.04-4.59,.04-1.79,0-4.02-.01-6.7-.04-2.68-.03-5.81-.07-9.38-.12-3.57-.05-6.69-.08-9.34-.08h-6.74c-5.03,0-7.01-2.33-5.93-6.98,.38-2.06,4.14-6.98,11.29-14.78,8.23-9.04,15.21-16.73,20.95-23.06,5.74-6.33,10.31-11.45,13.72-15.35,6.33-7.31,12.17-14.26,17.5-20.87,5.33-6.6,10.22-12.94,14.66-19-1.19,.05-4.32,.08-9.38,.08h-21.23c-5.58,0-12.21,.24-19.89,.73-2-4.01-2.71-7.39-2.11-10.15,.87-4.44,5.9-6.66,15.1-6.66,.65,0,1.46,.01,2.44,.04,.97,.03,2.14,.07,3.49,.12,1.35,.05,2.52,.1,3.49,.12,.97,.03,1.79,.04,2.44,.04,2.27,0,5.1-.01,8.49-.04,3.38-.03,7.35-.07,11.9-.12,9.09-.16,15.92-.24,20.46-.24,2.11,0,3.75,.69,4.91,2.07,1.16,1.38,1.5,3.13,1.01,5.24Z"/><path class="cls-15" d="M623.96,373.43c-1.4,3.49-7.74,10.46-19.02,20.92-19.97,18.41-44.31,37.86-73.01,58.33,10.21,1.62,19.34,3.1,27.37,4.46,8.03,1.36,15.09,2.59,21.16,3.68,1.97,.35,3.39,1.31,4.27,2.87,.88,1.56,.92,3.29,.14,5.18-1.41,3.54-4.2,5.49-8.39,5.84-2,.13-5.46-.24-10.36-1.12-1.17-.21-2.65-.48-4.44-.8-1.79-.32-3.91-.67-6.37-1.06-2.41-.38-4.51-.71-6.29-1.01-1.79-.29-3.3-.55-4.52-.77-1.76-.32-3.95-.72-6.59-1.22-2.63-.5-5.7-1.09-9.21-1.78-3.51-.69-6.57-1.26-9.18-1.73-2.61-.47-4.82-.87-6.63-1.19-4.96-.89-6.49-3.53-4.6-7.92,.74-1.96,5.31-6.14,13.72-12.55,9.7-7.44,17.93-13.77,24.7-18.99,6.77-5.22,12.17-9.45,16.22-12.68,7.53-6.07,14.5-11.89,20.91-17.45,6.42-5.56,12.34-10.93,17.79-16.11-1.18-.16-4.26-.68-9.25-1.58-4.98-.9-11.95-2.15-20.9-3.75-5.49-.99-12.06-1.92-19.71-2.8-1.26-4.3-1.36-7.75-.28-10.36,1.64-4.21,6.99-5.51,16.04-3.88,.64,.12,1.44,.27,2.39,.47,.95,.2,2.09,.45,3.42,.74,1.32,.29,2.46,.54,3.42,.74,.95,.2,1.75,.36,2.39,.47,2.24,.4,5.02,.89,8.36,1.46,3.33,.57,7.25,1.23,11.73,1.98,8.98,1.45,15.71,2.57,20.18,3.38,2.08,.37,3.57,1.34,4.47,2.91,.9,1.56,.93,3.34,.07,5.33Z"/><g><path class="cls-15" d="M686.95,401.23c-.62,2.21-4,6.84-10.14,13.92-10.88,12.46-24.33,25.84-40.36,40.12,6.29,.31,11.91,.6,16.87,.9,4.95,.29,9.3,.57,13.05,.83,1.22,.08,2.14,.57,2.77,1.46,.63,.89,.77,1.93,.43,3.13-.62,2.24-2.18,3.6-4.7,4.08-1.2,.21-3.32,.22-6.34,0-.72-.05-1.64-.11-2.74-.19s-2.41-.15-3.93-.22c-1.48-.07-2.77-.14-3.88-.2-1.1-.06-2.03-.12-2.79-.17-1.08-.08-2.44-.18-4.07-.31-1.63-.13-3.52-.29-5.69-.47-2.17-.18-4.06-.33-5.67-.44-1.61-.11-2.98-.21-4.09-.28-3.06-.21-4.16-1.71-3.31-4.49,.32-1.23,2.81-4.07,7.48-8.5,5.38-5.15,9.95-9.52,13.7-13.13,3.75-3.61,6.75-6.52,8.98-8.75,4.16-4.17,7.99-8.15,11.51-11.94,3.52-3.79,6.75-7.43,9.71-10.93-.72-.02-2.62-.13-5.7-.35-3.08-.21-7.38-.51-12.9-.9-3.39-.23-7.43-.37-12.12-.4-1.05-2.52-1.33-4.6-.85-6.26,.71-2.66,3.86-3.8,9.46-3.41,.39,.03,.89,.07,1.48,.13,.59,.06,1.3,.13,2.12,.22,.82,.09,1.53,.16,2.12,.22,.59,.06,1.08,.1,1.48,.13,1.38,.1,3.1,.21,5.16,.33,2.06,.13,4.47,.27,7.23,.43,5.53,.28,9.68,.52,12.44,.71,1.28,.09,2.25,.58,2.9,1.46,.65,.89,.78,1.96,.4,3.23Z"/><path class="cls-15" d="M692.09,462.16c-.48,1.62-1.46,2.94-2.95,3.96-1.53,1.05-3.11,1.52-4.76,1.41-1.81-.13-3.2-.64-4.16-1.53-1.25-1.01-1.64-2.36-1.16-4.05,.45-1.65,1.66-3.25,3.66-4.8,2.02-1.51,3.89-2.21,5.6-2.09,1.71,.12,2.88,.91,3.5,2.38,.69,1.44,.78,3.01,.27,4.73Z"/><path class="cls-15" d="M719.27,464.05c-.48,1.62-1.46,2.94-2.95,3.96-1.53,1.05-3.11,1.52-4.76,1.41-1.81-.13-3.2-.64-4.16-1.53-1.25-1.01-1.64-2.36-1.16-4.05,.45-1.65,1.66-3.26,3.66-4.8,2.02-1.51,3.89-2.21,5.6-2.09s2.88,.91,3.5,2.38c.69,1.44,.78,3.01,.27,4.73Z"/><path class="cls-15" d="M746.45,465.94c-.48,1.62-1.46,2.94-2.95,3.96-1.53,1.05-3.11,1.52-4.76,1.41-1.81-.13-3.2-.64-4.16-1.53-1.25-1.01-1.64-2.36-1.16-4.05,.45-1.65,1.66-3.25,3.66-4.8,2.02-1.51,3.89-2.21,5.6-2.09s2.88,.91,3.5,2.38c.69,1.44,.78,3.01,.27,4.73Z"/></g><path class="cls-15" d="M385.49,135.5c-.4,4.38-5.18,14.32-14.35,29.83-16.25,27.33-37.05,57.28-62.41,89.84,12-1.6,22.73-2.98,32.2-4.14,9.47-1.16,17.79-2.14,24.97-2.95,2.33-.26,4.25,.34,5.75,1.79,1.5,1.46,2.13,3.38,1.89,5.77-.39,4.44-2.88,7.56-7.46,9.35-2.2,.82-6.2,1.56-12,2.21-1.39,.16-3.13,.35-5.24,.59-2.11,.24-4.61,.55-7.5,.94-2.83,.38-5.29,.7-7.4,.97-2.11,.27-3.88,.48-5.33,.65-2.08,.23-4.68,.51-7.8,.83-3.12,.32-6.76,.68-10.93,1.08-4.16,.4-7.79,.78-10.87,1.12-3.09,.35-5.7,.64-7.84,.88-5.86,.66-8.46-1.79-7.81-7.35,.17-2.44,3.9-8.67,11.2-18.67,8.39-11.59,15.51-21.45,21.36-29.56,5.85-8.12,10.5-14.66,13.96-19.64,6.41-9.33,12.29-18.18,17.63-26.56,5.34-8.38,10.19-16.38,14.57-24.02-1.38,.22-5.01,.66-10.9,1.32-5.89,.66-14.12,1.59-24.7,2.77-6.49,.73-14.17,1.88-23.05,3.45-2.85-4.4-4.11-8.24-3.78-11.53,.43-5.28,5.99-8.52,16.7-9.72,.76-.08,1.7-.18,2.84-.27,1.14-.09,2.5-.2,4.08-.31,1.58-.11,2.94-.22,4.08-.31,1.14-.09,2.08-.19,2.84-.27,2.64-.3,5.93-.68,9.87-1.16,3.93-.47,8.54-1.04,13.82-1.7,10.56-1.38,18.48-2.36,23.77-2.96,2.46-.28,4.45,.31,5.99,1.77,1.53,1.45,2.16,3.44,1.87,5.96Z"/><path class="cls-15" d="M482.66,221.82c-1.18,4.24-7.68,13.16-19.48,26.76-20.91,23.96-46.77,49.67-77.58,77.13,12.09,.59,22.9,1.16,32.42,1.73,9.52,.57,17.88,1.1,25.09,1.6,2.34,.16,4.12,1.1,5.33,2.8,1.22,1.7,1.49,3.71,.82,6.01-1.19,4.3-4.2,6.92-9.03,7.85-2.32,.41-6.38,.41-12.2,.01-1.39-.1-3.15-.22-5.26-.37-2.12-.15-4.63-.29-7.54-.43-2.85-.14-5.33-.26-7.45-.37-2.12-.12-3.91-.22-5.36-.32-2.08-.14-4.69-.34-7.82-.59-3.13-.25-6.77-.55-10.94-.9-4.17-.35-7.8-.64-10.9-.85-3.1-.22-5.72-.4-7.87-.55-5.88-.41-8-3.29-6.36-8.64,.61-2.37,5.4-7.82,14.38-16.34,10.34-9.89,19.12-18.3,26.33-25.23,7.21-6.93,12.97-12.53,17.27-16.81,7.99-8.02,15.36-15.67,22.13-22.95,6.76-7.28,12.98-14.28,18.66-21-1.4-.03-5.05-.26-10.96-.67-5.91-.41-14.18-.98-24.8-1.72-6.51-.45-14.28-.71-23.29-.76-2.02-4.84-2.56-8.85-1.64-12.02,1.37-5.11,7.43-7.3,18.18-6.55,.76,.05,1.71,.13,2.84,.25,1.13,.11,2.49,.25,4.07,.43,1.58,.17,2.93,.31,4.07,.42,1.14,.11,2.08,.19,2.84,.25,2.66,.18,5.96,.4,9.91,.64,3.95,.24,8.59,.52,13.9,.82,10.63,.55,18.61,1.01,23.92,1.37,2.46,.17,4.32,1.11,5.57,2.82,1.25,1.71,1.5,3.77,.76,6.2Z"/><circle class="cls-1" cx="607.89" cy="576.35" r="30.22"/><circle class="cls-3" cx="629.35" cy="636.01" r="25.1"/><circle class="cls-3" cx="646.83" cy="696.45" r="17.49"/></g></svg>